HIERARCHY
ROOT Hips
{
	OFFSET 0.000000 8.830580 0.000000
	CHANNELS 6 Xposition Yposition Zposition Zrotation Yrotation Xrotation 
	JOINT Spine
	{
		OFFSET 0.000000 0.010000 0.000000
		CHANNELS 3 Zrotation Yrotation Xrotation
		JOINT Spine1
		{
			OFFSET 0.000000 2.459130 0.000000
			CHANNELS 3 Zrotation Yrotation Xrotation
			JOINT Neck
			{
				OFFSET 0.000000 2.484630 0.000000
				CHANNELS 3 Zrotation Yrotation Xrotation
				JOINT Head_virtual
				{
					OFFSET 0.000000 0.000000 0.000000
					CHANNELS 3 Zrotation Yrotation Xrotation
					JOINT Head
					{
						OFFSET 0.000000 0.927525 0.000000
						CHANNELS 3 Zrotation Yrotation Xrotation
						End Site
						{
							OFFSET 0.000000 0.000000 0.000000
						}
					}
				}
				JOINT LeftUpArm_virtual
				{
					OFFSET 0.000000 0.000000 0.000000
					CHANNELS 3 Zrotation Yrotation Xrotation
					JOINT LeftUpArm
					{
						OFFSET 1.248820 0.000000 0.000000
						CHANNELS 3 Zrotation Yrotation Xrotation
						JOINT LeftForeArm
						{
							OFFSET 2.597580 0.000000 0.000000
							CHANNELS 3 Zrotation Yrotation Xrotation
							JOINT LeftHand
							{
								OFFSET 2.455420 0.000000 0.000000
								CHANNELS 3 Zrotation Yrotation Xrotation
								End Site
								{
									OFFSET 0.000000 0.000000 0.000000
								}
							}
						}
					}
				}
				JOINT RightUpArm_virtual
				{
					OFFSET -0.000000 -0.000000 -0.000000
					CHANNELS 3 Zrotation Yrotation Xrotation
					JOINT RightUpArm
					{
						OFFSET -1.248820 -0.000000 -0.000000
						CHANNELS 3 Zrotation Yrotation Xrotation
						JOINT RightForeArm
						{
							OFFSET -2.597580 -0.000000 -0.000000
							CHANNELS 3 Zrotation Yrotation Xrotation
							JOINT RightHand
							{
								OFFSET -2.455420 -0.000000 -0.000000
								CHANNELS 3 Zrotation Yrotation Xrotation
								End Site
								{
									OFFSET 0.000000 0.000000 0.000000
								}
							}
						}
					}
				}
			}
		}
	}
	JOINT LeftUpLeg
	{
		OFFSET 1.271939 0.000000 0.000000
		CHANNELS 3 Zrotation Yrotation Xrotation
		JOINT LeftLowLeg
		{
			OFFSET 0.000000 -4.342910 0.000000
			CHANNELS 3 Zrotation Yrotation Xrotation
			JOINT LeftFoot
			{
				OFFSET 0.000000 -4.487670 0.000000
				CHANNELS 3 Zrotation Yrotation Xrotation
				JOINT LeftToeBase
				{
					OFFSET 0.000000 0.000000 1.515070
					CHANNELS 3 Zrotation Yrotation Xrotation
					End Site
					{
						OFFSET 0.000000 0.000000 0.000000
					}
				}
			}
		}
	}
	JOINT RightUpLeg
	{
		OFFSET -1.271939 0.000000 0.000000
		CHANNELS 3 Zrotation Yrotation Xrotation
		JOINT RightLowLeg
		{
			OFFSET 0.000000 -4.342910 0.000000
			CHANNELS 3 Zrotation Yrotation Xrotation
			JOINT RightFoot
			{
				OFFSET 0.000000 -4.487670 0.000000
				CHANNELS 3 Zrotation Yrotation Xrotation
				JOINT RightToeBase
				{
					OFFSET 0.000000 0.000000 1.515070
					CHANNELS 3 Zrotation Yrotation Xrotation
					End Site
					{
						OFFSET 0.000000 0.000000 0.000000
					}
				}
			}
		}
	}
}
MOTION
Frames: 7
Frame Time: 0.041667
-16.639300 5.842408 40.410834 -169.191692 -1.018999 169.156380 -10.914987 -35.146266 3.254143 34.694543 14.711571 41.997683 0.000000 0.000000 0.000000 -13.822834 -32.662397 10.352518 27.814230 19.166299 -51.139346 -30.368700 -7.603560 -10.395600 4.133750 -45.110199 6.521620 -180.000000 -60.471001 180.000000 3.333060 -8.530350 42.327301 15.175300 2.059160 2.983070 25.875500 17.658100 15.780600 180.000000 73.042999 180.000000 -9.563520 2.623330 -27.640499 5.309897 16.091785 -61.960975 0.000000 0.000000 90.177299 0.737534 9.598948 -5.442932 0.000000 0.000000 -13.521060 11.291323 -10.318523 -57.552888 0.000000 0.000000 84.752403 16.393136 -12.053574 -0.894625 0.000000 0.000000 -17.248680 
-16.639635 5.844057 40.409553 -169.214049 -0.994137 169.217675 -10.746938 -35.074275 3.175837 34.412066 14.757464 41.875730 0.000000 0.000000 0.000000 -13.557040 -32.606169 9.756787 27.392535 19.570404 -51.570860 -30.170099 -7.492460 -10.640800 3.968450 -44.715698 7.141170 -180.000000 -61.052002 180.000000 4.437470 -9.411060 38.149300 15.347600 1.972470 2.801070 25.919300 17.570200 16.326401 180.000000 73.139000 180.000000 -10.436300 2.554430 -27.159300 5.277599 16.134773 -61.983131 0.000000 0.000000 90.153503 0.737044 9.585648 -5.471319 0.000000 0.000000 -13.525920 11.323042 -10.431471 -57.593049 0.000000 0.000000 84.733200 16.288219 -11.949613 -0.885797 0.000000 0.000000 -17.280450 
-16.641033 5.845763 40.408375 -169.230205 -0.966199 169.302604 -10.396576 -34.915134 2.954122 33.997088 14.721486 41.859823 0.000000 0.000000 0.000000 -13.412422 -32.319244 8.895981 26.973267 19.963086 -52.124880 -29.971500 -7.294930 -10.932300 3.976570 -44.482399 7.729940 -180.000000 -61.450996 180.000000 7.280190 -12.030700 35.245098 15.517500 1.969350 2.692360 25.974701 17.480101 16.367599 180.000000 73.191002 180.000000 -10.060500 2.597630 -26.830999 5.231532 16.186071 -62.030252 0.000000 0.000000 90.127098 0.748275 9.583596 -5.507294 0.000000 0.000000 -13.472270 11.371602 -10.580059 -57.653967 0.000000 0.000000 84.703003 16.156761 -11.824877 -0.869350 0.000000 0.000000 -17.328520 
-16.643040 5.846700 40.407208 -169.284668 -0.967864 169.403026 -10.130622 -34.754313 2.835745 33.861885 14.874535 41.795639 0.000000 0.000000 0.000000 -13.388053 -32.054250 8.074904 26.428129 20.360065 -52.897945 -29.924000 -7.207560 -10.988900 4.139430 -44.388699 8.272340 -180.000000 -61.431000 -180.000000 12.165800 -15.424000 34.375999 15.656400 1.825050 2.440330 25.999500 17.128401 16.611700 -180.000000 73.110001 -180.000000 -10.295000 2.605670 -26.386400 5.131321 16.210375 -62.094985 0.000000 0.000000 90.091499 0.771745 9.598080 -5.528831 0.000000 0.000000 -13.460610 11.369166 -10.727213 -57.746420 0.000000 0.000000 84.704102 16.074716 -11.684233 -0.888819 0.000000 0.000000 -17.361540 
-16.644102 5.849511 40.405713 -169.245126 -0.987998 169.335950 -10.203829 -34.775304 3.110901 34.329241 15.106159 41.809555 0.000000 0.000000 0.000000 -13.896099 -31.513430 7.313559 25.832915 20.550553 -53.853320 -30.174900 -7.174420 -10.694100 4.435580 -44.392200 8.187310 180.000000 -61.244003 -180.000000 17.031200 -18.886400 33.965599 15.555900 1.575720 2.624380 25.892200 16.918100 16.514099 -180.000000 73.130997 -180.000000 -10.250800 3.000100 -25.572001 5.170170 16.215992 -62.004155 0.000000 0.000000 90.067802 0.805742 9.571827 -5.540675 0.000000 0.000000 -13.438510 11.434600 -10.945074 -57.640183 0.000000 0.000000 84.645302 15.947600 -11.565079 -0.877823 0.000000 0.000000 -17.355310 
-16.647108 5.849116 40.405992 -169.288105 -1.047893 169.408682 -9.952312 -34.612019 3.054170 34.366807 15.252842 41.862635 0.000000 0.000000 0.000000 -14.224581 -30.865760 6.196464 24.959218 20.995358 -54.944226 -30.234900 -7.072200 -10.666500 4.553480 -44.778099 7.863490 -180.000000 -61.239998 180.000000 21.509701 -21.456900 32.747398 15.681200 1.357690 2.522740 25.756800 16.715401 16.531799 180.000000 73.074997 180.000000 -10.423000 2.759550 -24.733801 5.063647 16.169240 -62.078793 0.000000 0.000000 90.037804 0.843327 9.595878 -5.531432 0.000000 0.000000 -13.434970 11.425407 -11.146179 -57.744316 0.000000 0.000000 84.679703 15.807136 -11.495775 -0.847604 0.000000 0.000000 -17.444340 
-16.647461 5.848525 40.406097 -169.315814 -1.079483 169.319397 -9.822261 -34.383840 3.089857 34.469849 15.327206 42.103083 0.000000 0.000000 0.000000 -14.685350 -29.979037 4.789963 24.252861 21.272922 -55.983226 -30.202000 -7.308520 -10.562500 4.907540 -44.549000 7.384590 180.000000 -60.676003 -180.000000 26.441000 -19.521099 29.632099 15.664000 1.153800 2.489520 25.764999 16.652500 16.320700 -180.000000 73.059998 -180.000000 -10.535100 2.370750 -23.997499 5.037008 16.173128 -61.992030 0.000000 0.000000 90.026001 0.861571 9.571862 -5.527793 0.000000 0.000000 -13.430420 11.406702 -11.276159 -57.669780 0.000000 0.000000 84.695000 15.756285 -11.456308 -0.871872 0.000000 0.000000 -17.467670 
